<svg width="512" height="512" viewBox="0 0 512 512" fill="none" xmlns="http://www.w3.org/2000/svg">
    <defs>
        <linearGradient id="shield_grad" x1="256" y1="0" x2="256" y2="512" gradientUnits="userSpaceOnUse">
            <stop stop-color="#1E3A8A"/>
            <stop offset="1" stop-color="#0F172A"/>
        </linearGradient>
        <linearGradient id="accent_grad" x1="256" y1="40" x2="256" y2="472" gradientUnits="userSpaceOnUse">
            <stop stop-color="#3B82F6" stop-opacity="0.3"/>
            <stop offset="1" stop-color="#3B82F6" stop-opacity="0.1"/>
        </linearGradient>
    </defs>
    <!-- Outer Shield Shadow -->
    <path d="M256 30L60 110V250C60 380 256 482 256 482C256 482 452 380 452 250V110L256 30Z" fill="black" fill-opacity="0.1"/>
    <!-- Main Shield Body -->
    <path d="M256 20L50 100V240C50 370 256 472 256 472C256 472 462 370 462 240V100L256 20Z" fill="url(#shield_grad)"/>
    <!-- Inner Border/Accent -->
    <path d="M256 50L80 120V230C80 340 256 432 256 432C256 432 432 340 432 230V120L256 50Z" stroke="#3B82F6" stroke-width="8" stroke-opacity="0.5"/>
    <path d="M256 50L80 120V230C80 340 256 432 256 432C256 432 432 340 432 230V120L256 50Z" fill="url(#accent_grad)"/>
    
    <!-- Central Book/Academic Icon -->
    <path d="M196 200H316V300H196V200Z" fill="white" fill-opacity="0.1"/>
    <path d="M256 180V320" stroke="white" stroke-width="12" stroke-linecap="round" stroke-opacity="0.8"/>
    <path d="M200 200H312M200 240H312M200 280H312" stroke="white" stroke-width="8" stroke-linecap="round" stroke-opacity="0.5"/>
    
    <!-- Decorative Wings/Emblem -->
    <path d="M256 150L280 180H232L256 150Z" fill="#3B82F6" fill-opacity="0.8"/>
</svg>
